<svg width="662" height="303" viewBox="0 0 662 303" fill="none" xmlns="http://www.w3.org/2000/svg">
<path d="M662 303H0V0H662V303ZM17 17V286H645V17H17Z" fill="white"/>
<path d="M71.6011 156H41.2388L75.4469 52.3636H113.906L148.114 156H117.751L95.0812 80.9041H94.2715L71.6011 156ZM65.9334 115.112H123.014V136.163H65.9334V115.112ZM247.765 52.3636V156H224.285L186.838 101.55H186.231V156H158.095V52.3636H181.98L218.82 106.611H219.629V52.3636H247.765ZM289.209 52.3636V156H261.074V52.3636H289.209ZM302.543 52.3636H337.561L361.649 111.064H362.863L386.95 52.3636H421.968V156H394.44V96.0852H393.63L370.555 155.19H353.957L330.882 95.6804H330.072V156H302.543V52.3636ZM462.223 156H431.861L466.069 52.3636H504.528L538.736 156H508.374L485.704 80.9041H484.894L462.223 156ZM456.556 115.112H513.637V136.163H456.556V115.112ZM548.718 156V52.3636H576.853V133.33H618.753V156H548.718Z" fill="white"/>
<path d="M120.392 211.909H98.7616C98.6082 210.119 98.1991 208.496 97.5343 207.038C96.8951 205.581 96.0002 204.328 94.8496 203.28C93.7246 202.206 92.3567 201.388 90.7459 200.825C89.1351 200.237 87.307 199.943 85.2616 199.943C81.682 199.943 78.6522 200.812 76.1721 202.551C73.7175 204.29 71.8511 206.783 70.5726 210.03C69.3198 213.277 68.6934 217.176 68.6934 221.727C68.6934 226.534 69.3326 230.561 70.611 233.808C71.915 237.03 73.7942 239.459 76.2488 241.095C78.7033 242.706 81.6565 243.511 85.1082 243.511C87.0769 243.511 88.8411 243.268 90.4008 242.783C91.9604 242.271 93.3155 241.543 94.4661 240.597C95.6167 239.651 96.5499 238.513 97.2658 237.183C98.0073 235.828 98.5059 234.307 98.7616 232.619L120.392 232.773C120.136 236.097 119.203 239.484 117.592 242.936C115.982 246.362 113.693 249.533 110.727 252.447C107.787 255.337 104.143 257.663 99.7971 259.428C95.4505 261.192 90.4008 262.074 84.6479 262.074C77.4377 262.074 70.969 260.527 65.2417 257.433C59.54 254.339 55.0272 249.788 51.7033 243.78C48.405 237.771 46.7559 230.42 46.7559 221.727C46.7559 212.983 48.4434 205.619 51.8184 199.636C55.1934 193.628 59.7445 189.089 65.4718 186.021C71.1991 182.928 77.5911 181.381 84.6479 181.381C89.6082 181.381 94.1721 182.058 98.3397 183.413C102.507 184.768 106.163 186.75 109.308 189.358C112.453 191.94 114.984 195.124 116.902 198.908C118.82 202.692 119.983 207.026 120.392 211.909ZM206.157 221.727C206.157 230.472 204.457 237.848 201.056 243.857C197.656 249.839 193.066 254.378 187.288 257.472C181.51 260.54 175.066 262.074 167.958 262.074C160.799 262.074 154.331 260.527 148.552 257.433C142.799 254.314 138.223 249.763 134.822 243.78C131.447 237.771 129.76 230.42 129.76 221.727C129.76 212.983 131.447 205.619 134.822 199.636C138.223 193.628 142.799 189.089 148.552 186.021C154.331 182.928 160.799 181.381 167.958 181.381C175.066 181.381 181.51 182.928 187.288 186.021C193.066 189.089 197.656 193.628 201.056 199.636C204.457 205.619 206.157 212.983 206.157 221.727ZM184.22 221.727C184.22 217.023 183.593 213.06 182.341 209.838C181.113 206.591 179.285 204.136 176.856 202.474C174.453 200.787 171.487 199.943 167.958 199.943C164.43 199.943 161.451 200.787 159.022 202.474C156.619 204.136 154.791 206.591 153.538 209.838C152.311 213.06 151.697 217.023 151.697 221.727C151.697 226.432 152.311 230.408 153.538 233.655C154.791 236.876 156.619 239.331 159.022 241.018C161.451 242.68 164.43 243.511 167.958 243.511C171.487 243.511 174.453 242.68 176.856 241.018C179.285 239.331 181.113 236.876 182.341 233.655C183.593 230.408 184.22 226.432 184.22 221.727ZM216.023 182.455H242.563L260.819 226.943H261.739L279.995 182.455H306.535V261H285.671V215.591H285.058L267.569 260.386H254.989L237.501 215.284H236.887V261H216.023V182.455ZM316.641 261V182.455H350.544C356.374 182.455 361.474 183.605 365.847 185.906C370.219 188.207 373.619 191.442 376.048 195.609C378.477 199.777 379.692 204.648 379.692 210.222C379.692 215.847 378.439 220.717 375.933 224.834C373.453 228.95 369.963 232.121 365.463 234.345C360.989 236.57 355.76 237.682 349.777 237.682H329.527V221.114H345.482C347.987 221.114 350.122 220.679 351.886 219.81C353.676 218.915 355.044 217.649 355.99 216.013C356.962 214.376 357.447 212.446 357.447 210.222C357.447 207.972 356.962 206.054 355.99 204.469C355.044 202.858 353.676 201.631 351.886 200.787C350.122 199.918 347.987 199.483 345.482 199.483H337.964V261H316.641ZM398.11 261H375.099L401.025 182.455H430.173L456.099 261H433.088L415.906 204.085H415.292L398.11 261ZM393.815 230.011H437.076V245.966H393.815V230.011ZM531.624 182.455V261H513.829L485.448 219.733H484.988V261H463.664V182.455H481.766L509.687 223.568H510.3V182.455H531.624ZM538.489 182.455H562.268L577.609 214.364H578.222L593.563 182.455H617.342L588.501 236.301V261H567.33V236.301L538.489 182.455Z" fill="white"/>
</svg>
