<svg width="102" height="137" viewBox="0 0 102 137" fill="none" xmlns="http://www.w3.org/2000/svg">
<path d="M63.29 38.381V97.3702L31.6445 133.655L0 97.3702V38.381L31.6445 2.09583L63.29 38.381ZM31.6445 39.8624C22.3045 39.8627 14.7334 52.4511 14.7334 67.9796C14.7335 83.5081 22.3046 96.0965 31.6445 96.0968C40.9847 96.0968 48.5566 83.5083 48.5566 67.9796C48.5566 52.4509 40.9847 39.8624 31.6445 39.8624Z" fill="white"/>
<path d="M32.5574 42.9749C34.3031 42.9749 35.979 43.4704 37.5379 44.3792C31.6771 47.7959 27.4734 57.0716 27.4734 67.9797C27.4735 78.8876 31.6773 88.1625 37.5379 91.5793C35.9789 92.4882 34.3032 92.9846 32.5574 92.9846C24.2489 92.9843 17.5136 81.7891 17.5135 67.9797C17.5135 54.1702 24.2489 42.9752 32.5574 42.9749Z" fill="white"/>
<path d="M34.6746 0H69.7434L101.285 36.293H66.2158L34.6746 0Z" fill="white"/>
<path d="M34.6746 136.083H69.7434L101.285 99.7696H66.2158L34.6746 136.083Z" fill="white"/>
<rect x="66.1845" y="38.8247" width="35.0688" height="57.4796" fill="white"/>
</svg>
